<mxfile host="app.diagrams.net" modified="2023-02-07T12:21:47.583Z" agent="5.0 (Windows NT 10.0; Win64; x64) AppleWebKit/537.36 (KHTML, like Gecko) Chrome/109.0.0.0 Safari/537.36" etag="6E5Fft4x8TV5X6Y5j6nU" version="20.8.17" type="github">
  <diagram name="Page-1" id="2YBvvXClWsGukQMizWep">
    <mxGraphModel dx="1500" dy="784" grid="1" gridSize="10" guides="1" tooltips="1" connect="1" arrows="1" fold="1" page="1" pageScale="1" pageWidth="850" pageHeight="1100" math="0" shadow="0">
      <root>
        <mxCell id="0" />
        <mxCell id="1" parent="0" />
        <mxCell id="G6huOerm699WP4-tz_CP-7" value="" style="endArrow=none;html=1;edgeStyle=orthogonalEdgeStyle;rounded=0;dashed=1;startArrow=none;" edge="1" parent="1" source="G6huOerm699WP4-tz_CP-6">
          <mxGeometry relative="1" as="geometry">
            <mxPoint x="64.5" y="140" as="sourcePoint" />
            <mxPoint x="65" y="1690" as="targetPoint" />
            <Array as="points">
              <mxPoint x="65" y="230" />
              <mxPoint x="65" y="230" />
            </Array>
          </mxGeometry>
        </mxCell>
        <mxCell id="G6huOerm699WP4-tz_CP-10" value="User" style="shape=umlActor;verticalLabelPosition=bottom;verticalAlign=top;html=1;" vertex="1" parent="1">
          <mxGeometry x="50" y="50" width="30" height="60" as="geometry" />
        </mxCell>
        <mxCell id="G6huOerm699WP4-tz_CP-13" value="" style="endArrow=none;html=1;edgeStyle=orthogonalEdgeStyle;rounded=0;dashed=1;" edge="1" parent="1" target="G6huOerm699WP4-tz_CP-6">
          <mxGeometry relative="1" as="geometry">
            <mxPoint x="64.5" y="140" as="sourcePoint" />
            <mxPoint x="65" y="520" as="targetPoint" />
            <Array as="points">
              <mxPoint x="65" y="220" />
              <mxPoint x="65" y="220" />
            </Array>
          </mxGeometry>
        </mxCell>
        <mxCell id="G6huOerm699WP4-tz_CP-6" value="" style="html=1;points=[];perimeter=orthogonalPerimeter;outlineConnect=0;targetShapes=umlLifeline;portConstraint=eastwest;newEdgeStyle={&quot;edgeStyle&quot;:&quot;elbowEdgeStyle&quot;,&quot;elbow&quot;:&quot;vertical&quot;,&quot;curved&quot;:0,&quot;rounded&quot;:0};" vertex="1" parent="1">
          <mxGeometry x="60" y="180" width="10" height="1460" as="geometry" />
        </mxCell>
        <mxCell id="G6huOerm699WP4-tz_CP-14" value=":Register:UI" style="shape=umlLifeline;perimeter=lifelinePerimeter;whiteSpace=wrap;html=1;container=0;dropTarget=0;collapsible=0;recursiveResize=0;outlineConnect=0;portConstraint=eastwest;newEdgeStyle={&quot;edgeStyle&quot;:&quot;elbowEdgeStyle&quot;,&quot;elbow&quot;:&quot;vertical&quot;,&quot;curved&quot;:0,&quot;rounded&quot;:0};" vertex="1" parent="1">
          <mxGeometry x="155" y="130" width="100" height="470" as="geometry" />
        </mxCell>
        <mxCell id="G6huOerm699WP4-tz_CP-15" value="" style="html=1;points=[];perimeter=orthogonalPerimeter;outlineConnect=0;targetShapes=umlLifeline;portConstraint=eastwest;newEdgeStyle={&quot;edgeStyle&quot;:&quot;elbowEdgeStyle&quot;,&quot;elbow&quot;:&quot;vertical&quot;,&quot;curved&quot;:0,&quot;rounded&quot;:0};" vertex="1" parent="G6huOerm699WP4-tz_CP-14">
          <mxGeometry x="45" y="80" width="10" height="320" as="geometry" />
        </mxCell>
        <mxCell id="G6huOerm699WP4-tz_CP-16" value="registerUser" style="html=1;verticalAlign=bottom;endArrow=block;edgeStyle=elbowEdgeStyle;elbow=vertical;curved=0;rounded=0;" edge="1" parent="1" source="G6huOerm699WP4-tz_CP-6" target="G6huOerm699WP4-tz_CP-15">
          <mxGeometry relative="1" as="geometry">
            <mxPoint x="25" y="220" as="sourcePoint" />
            <Array as="points">
              <mxPoint x="145" y="210" />
              <mxPoint x="110" y="220" />
            </Array>
            <mxPoint x="195" y="210" as="targetPoint" />
          </mxGeometry>
        </mxCell>
        <mxCell id="G6huOerm699WP4-tz_CP-17" value=":Join&amp;amp;Create/Team" style="shape=umlLifeline;perimeter=lifelinePerimeter;whiteSpace=wrap;html=1;container=0;dropTarget=0;collapsible=0;recursiveResize=0;outlineConnect=0;portConstraint=eastwest;newEdgeStyle={&quot;edgeStyle&quot;:&quot;elbowEdgeStyle&quot;,&quot;elbow&quot;:&quot;vertical&quot;,&quot;curved&quot;:0,&quot;rounded&quot;:0};" vertex="1" parent="1">
          <mxGeometry x="295" y="130" width="110" height="390" as="geometry" />
        </mxCell>
        <mxCell id="G6huOerm699WP4-tz_CP-18" value="" style="html=1;points=[];perimeter=orthogonalPerimeter;outlineConnect=0;targetShapes=umlLifeline;portConstraint=eastwest;newEdgeStyle={&quot;edgeStyle&quot;:&quot;elbowEdgeStyle&quot;,&quot;elbow&quot;:&quot;vertical&quot;,&quot;curved&quot;:0,&quot;rounded&quot;:0};" vertex="1" parent="G6huOerm699WP4-tz_CP-17">
          <mxGeometry x="50" y="170" width="10" height="180" as="geometry" />
        </mxCell>
        <mxCell id="G6huOerm699WP4-tz_CP-19" value="actionUserAfterRegister" style="html=1;verticalAlign=bottom;endArrow=block;edgeStyle=elbowEdgeStyle;elbow=vertical;curved=0;rounded=0;" edge="1" parent="1" source="G6huOerm699WP4-tz_CP-15">
          <mxGeometry x="-0.037" relative="1" as="geometry">
            <mxPoint x="215" y="240" as="sourcePoint" />
            <Array as="points">
              <mxPoint x="255" y="300" />
              <mxPoint x="290" y="240" />
              <mxPoint x="255" y="250" />
            </Array>
            <mxPoint x="345" y="300" as="targetPoint" />
            <mxPoint as="offset" />
          </mxGeometry>
        </mxCell>
        <mxCell id="G6huOerm699WP4-tz_CP-27" value="Normal User" style="html=1;verticalAlign=bottom;endArrow=open;dashed=1;endSize=8;edgeStyle=elbowEdgeStyle;elbow=vertical;curved=0;rounded=0;" edge="1" parent="1" target="G6huOerm699WP4-tz_CP-15">
          <mxGeometry relative="1" as="geometry">
            <mxPoint x="205" y="375" as="targetPoint" />
            <Array as="points">
              <mxPoint x="270" y="374.5" />
            </Array>
            <mxPoint x="345" y="374.5" as="sourcePoint" />
          </mxGeometry>
        </mxCell>
        <mxCell id="G6huOerm699WP4-tz_CP-28" value="alt" style="shape=umlFrame;whiteSpace=wrap;html=1;pointerEvents=0;" vertex="1" parent="1">
          <mxGeometry x="155" y="320" width="270" height="140" as="geometry" />
        </mxCell>
        <mxCell id="G6huOerm699WP4-tz_CP-29" value="&lt;b&gt;[Join to the team]&lt;/b&gt;" style="text;html=1;align=center;verticalAlign=middle;resizable=0;points=[];autosize=1;strokeColor=none;fillColor=none;" vertex="1" parent="1">
          <mxGeometry x="215" y="310" width="120" height="30" as="geometry" />
        </mxCell>
        <mxCell id="G6huOerm699WP4-tz_CP-31" value="" style="line;strokeWidth=1;rotatable=0;dashed=1;labelPosition=right;align=left;verticalAlign=middle;spacingTop=0;spacingLeft=6;points=[];portConstraint=eastwest;" vertex="1" parent="1">
          <mxGeometry x="155" y="390" width="270" height="10" as="geometry" />
        </mxCell>
        <mxCell id="G6huOerm699WP4-tz_CP-32" value="Administrator" style="html=1;verticalAlign=bottom;endArrow=open;dashed=1;endSize=8;edgeStyle=elbowEdgeStyle;elbow=vertical;curved=0;rounded=0;" edge="1" parent="1">
          <mxGeometry relative="1" as="geometry">
            <mxPoint x="207.5" y="440" as="targetPoint" />
            <Array as="points">
              <mxPoint x="267.5" y="440" />
            </Array>
            <mxPoint x="342.5" y="440" as="sourcePoint" />
          </mxGeometry>
        </mxCell>
        <mxCell id="G6huOerm699WP4-tz_CP-34" value="" style="shape=umlDestroy;whiteSpace=wrap;html=1;strokeWidth=3;targetShapes=umlLifeline;dashed=1;" vertex="1" parent="1">
          <mxGeometry x="335" y="510" width="30" height="30" as="geometry" />
        </mxCell>
        <mxCell id="G6huOerm699WP4-tz_CP-35" value="Normal User/ Admin" style="html=1;verticalAlign=bottom;endArrow=open;dashed=1;endSize=8;edgeStyle=elbowEdgeStyle;elbow=vertical;curved=0;rounded=0;" edge="1" parent="1">
          <mxGeometry relative="1" as="geometry">
            <mxPoint x="70" y="530" as="targetPoint" />
            <Array as="points">
              <mxPoint x="130" y="530" />
            </Array>
            <mxPoint x="205" y="530" as="sourcePoint" />
          </mxGeometry>
        </mxCell>
        <mxCell id="G6huOerm699WP4-tz_CP-36" value="" style="shape=umlDestroy;whiteSpace=wrap;html=1;strokeWidth=3;targetShapes=umlLifeline;dashed=1;" vertex="1" parent="1">
          <mxGeometry x="190" y="590" width="30" height="30" as="geometry" />
        </mxCell>
        <mxCell id="G6huOerm699WP4-tz_CP-37" value="&lt;b style=&quot;border-color: var(--border-color); color: rgb(0, 0, 0); font-family: Helvetica; font-size: 12px; font-style: normal; font-variant-ligatures: normal; font-variant-caps: normal; letter-spacing: normal; orphans: 2; text-align: center; text-indent: 0px; text-transform: none; widows: 2; word-spacing: 0px; -webkit-text-stroke-width: 0px; background-color: rgb(251, 251, 251); text-decoration-thickness: initial; text-decoration-style: initial; text-decoration-color: initial;&quot;&gt;[Create team]&lt;/b&gt;" style="text;whiteSpace=wrap;html=1;" vertex="1" parent="1">
          <mxGeometry x="225" y="390" width="130" height="40" as="geometry" />
        </mxCell>
        <mxCell id="G6huOerm699WP4-tz_CP-38" value=":Login" style="shape=umlLifeline;perimeter=lifelinePerimeter;whiteSpace=wrap;html=1;container=0;dropTarget=0;collapsible=0;recursiveResize=0;outlineConnect=0;portConstraint=eastwest;newEdgeStyle={&quot;edgeStyle&quot;:&quot;elbowEdgeStyle&quot;,&quot;elbow&quot;:&quot;vertical&quot;,&quot;curved&quot;:0,&quot;rounded&quot;:0};" vertex="1" parent="1">
          <mxGeometry x="455" y="130" width="100" height="1490" as="geometry" />
        </mxCell>
        <mxCell id="G6huOerm699WP4-tz_CP-39" value="" style="html=1;points=[];perimeter=orthogonalPerimeter;outlineConnect=0;targetShapes=umlLifeline;portConstraint=eastwest;newEdgeStyle={&quot;edgeStyle&quot;:&quot;elbowEdgeStyle&quot;,&quot;elbow&quot;:&quot;vertical&quot;,&quot;curved&quot;:0,&quot;rounded&quot;:0};" vertex="1" parent="G6huOerm699WP4-tz_CP-38">
          <mxGeometry x="45" y="530" width="10" height="910" as="geometry" />
        </mxCell>
        <mxCell id="G6huOerm699WP4-tz_CP-41" value="Login User" style="html=1;verticalAlign=bottom;endArrow=block;edgeStyle=elbowEdgeStyle;elbow=vertical;curved=0;rounded=0;" edge="1" parent="1" target="G6huOerm699WP4-tz_CP-38">
          <mxGeometry relative="1" as="geometry">
            <mxPoint x="70" y="660" as="sourcePoint" />
            <Array as="points">
              <mxPoint x="145" y="660" />
              <mxPoint x="110" y="670" />
            </Array>
            <mxPoint x="200" y="660" as="targetPoint" />
          </mxGeometry>
        </mxCell>
        <mxCell id="G6huOerm699WP4-tz_CP-42" value=":ShareTeamCode" style="shape=umlLifeline;perimeter=lifelinePerimeter;whiteSpace=wrap;html=1;container=0;dropTarget=0;collapsible=0;recursiveResize=0;outlineConnect=0;portConstraint=eastwest;newEdgeStyle={&quot;edgeStyle&quot;:&quot;elbowEdgeStyle&quot;,&quot;elbow&quot;:&quot;vertical&quot;,&quot;curved&quot;:0,&quot;rounded&quot;:0};" vertex="1" parent="1">
          <mxGeometry x="595" y="130" width="110" height="860" as="geometry" />
        </mxCell>
        <mxCell id="G6huOerm699WP4-tz_CP-43" value="" style="html=1;points=[];perimeter=orthogonalPerimeter;outlineConnect=0;targetShapes=umlLifeline;portConstraint=eastwest;newEdgeStyle={&quot;edgeStyle&quot;:&quot;elbowEdgeStyle&quot;,&quot;elbow&quot;:&quot;vertical&quot;,&quot;curved&quot;:0,&quot;rounded&quot;:0};" vertex="1" parent="G6huOerm699WP4-tz_CP-42">
          <mxGeometry x="50" y="620" width="10" height="40" as="geometry" />
        </mxCell>
        <mxCell id="G6huOerm699WP4-tz_CP-44" value="share code" style="html=1;verticalAlign=bottom;endArrow=block;edgeStyle=elbowEdgeStyle;elbow=vertical;curved=0;rounded=0;" edge="1" parent="1" source="G6huOerm699WP4-tz_CP-39" target="G6huOerm699WP4-tz_CP-43">
          <mxGeometry relative="1" as="geometry">
            <mxPoint x="515" y="690" as="sourcePoint" />
            <Array as="points">
              <mxPoint x="615" y="750" />
              <mxPoint x="575" y="745" />
              <mxPoint x="565" y="720" />
              <mxPoint x="575" y="710" />
              <mxPoint x="545" y="700" />
            </Array>
            <mxPoint x="635" y="690" as="targetPoint" />
          </mxGeometry>
        </mxCell>
        <mxCell id="G6huOerm699WP4-tz_CP-45" value="Code shared" style="html=1;verticalAlign=bottom;endArrow=open;dashed=1;endSize=8;edgeStyle=elbowEdgeStyle;elbow=vertical;curved=0;rounded=0;" edge="1" parent="1" target="G6huOerm699WP4-tz_CP-39">
          <mxGeometry relative="1" as="geometry">
            <mxPoint x="515" y="760" as="targetPoint" />
            <Array as="points">
              <mxPoint x="595" y="790" />
              <mxPoint x="575" y="760" />
            </Array>
            <mxPoint x="645" y="790" as="sourcePoint" />
          </mxGeometry>
        </mxCell>
        <mxCell id="G6huOerm699WP4-tz_CP-46" value="loop" style="shape=umlFrame;whiteSpace=wrap;html=1;pointerEvents=0;" vertex="1" parent="1">
          <mxGeometry x="435" y="720" width="270" height="90" as="geometry" />
        </mxCell>
        <mxCell id="G6huOerm699WP4-tz_CP-47" value="&lt;b&gt;[For users who will join]&lt;/b&gt;" style="text;html=1;align=center;verticalAlign=middle;resizable=0;points=[];autosize=1;strokeColor=none;fillColor=none;" vertex="1" parent="1">
          <mxGeometry x="500" y="710" width="160" height="30" as="geometry" />
        </mxCell>
        <mxCell id="G6huOerm699WP4-tz_CP-48" value="alt" style="shape=umlFrame;whiteSpace=wrap;html=1;pointerEvents=0;" vertex="1" parent="1">
          <mxGeometry x="405" y="680" width="590" height="640" as="geometry" />
        </mxCell>
        <mxCell id="G6huOerm699WP4-tz_CP-49" value="&lt;b&gt;[For admin user]&lt;/b&gt;" style="text;html=1;align=center;verticalAlign=middle;resizable=0;points=[];autosize=1;strokeColor=none;fillColor=none;" vertex="1" parent="1">
          <mxGeometry x="520" y="670" width="120" height="30" as="geometry" />
        </mxCell>
        <mxCell id="G6huOerm699WP4-tz_CP-50" value=":Task" style="shape=umlLifeline;perimeter=lifelinePerimeter;whiteSpace=wrap;html=1;container=0;dropTarget=0;collapsible=0;recursiveResize=0;outlineConnect=0;portConstraint=eastwest;newEdgeStyle={&quot;edgeStyle&quot;:&quot;elbowEdgeStyle&quot;,&quot;elbow&quot;:&quot;vertical&quot;,&quot;curved&quot;:0,&quot;rounded&quot;:0};" vertex="1" parent="1">
          <mxGeometry x="735" y="130" width="110" height="1170" as="geometry" />
        </mxCell>
        <mxCell id="G6huOerm699WP4-tz_CP-51" value="" style="html=1;points=[];perimeter=orthogonalPerimeter;outlineConnect=0;targetShapes=umlLifeline;portConstraint=eastwest;newEdgeStyle={&quot;edgeStyle&quot;:&quot;elbowEdgeStyle&quot;,&quot;elbow&quot;:&quot;vertical&quot;,&quot;curved&quot;:0,&quot;rounded&quot;:0};" vertex="1" parent="G6huOerm699WP4-tz_CP-50">
          <mxGeometry x="50" y="710" width="10" height="400" as="geometry" />
        </mxCell>
        <mxCell id="G6huOerm699WP4-tz_CP-52" value="Add task&amp;nbsp;" style="html=1;verticalAlign=bottom;endArrow=block;edgeStyle=elbowEdgeStyle;elbow=vertical;curved=0;rounded=0;" edge="1" parent="1" target="G6huOerm699WP4-tz_CP-51">
          <mxGeometry relative="1" as="geometry">
            <mxPoint x="513" y="840" as="sourcePoint" />
            <Array as="points">
              <mxPoint x="685" y="840" />
              <mxPoint x="695" y="820" />
              <mxPoint x="617.5" y="830" />
              <mxPoint x="577.5" y="825" />
              <mxPoint x="567.5" y="800" />
              <mxPoint x="577.5" y="790" />
              <mxPoint x="547.5" y="780" />
            </Array>
            <mxPoint x="647.5" y="830" as="targetPoint" />
          </mxGeometry>
        </mxCell>
        <mxCell id="G6huOerm699WP4-tz_CP-53" value="Task added" style="html=1;verticalAlign=bottom;endArrow=open;dashed=1;endSize=8;edgeStyle=elbowEdgeStyle;elbow=vertical;curved=0;rounded=0;" edge="1" parent="1" source="G6huOerm699WP4-tz_CP-51" target="G6huOerm699WP4-tz_CP-39">
          <mxGeometry relative="1" as="geometry">
            <mxPoint x="625" y="880" as="targetPoint" />
            <Array as="points">
              <mxPoint x="675" y="920" />
              <mxPoint x="710" y="880" />
              <mxPoint x="690" y="850" />
            </Array>
            <mxPoint x="760" y="880" as="sourcePoint" />
          </mxGeometry>
        </mxCell>
        <mxCell id="G6huOerm699WP4-tz_CP-54" value=":Reward" style="shape=umlLifeline;perimeter=lifelinePerimeter;whiteSpace=wrap;html=1;container=0;dropTarget=0;collapsible=0;recursiveResize=0;outlineConnect=0;portConstraint=eastwest;newEdgeStyle={&quot;edgeStyle&quot;:&quot;elbowEdgeStyle&quot;,&quot;elbow&quot;:&quot;vertical&quot;,&quot;curved&quot;:0,&quot;rounded&quot;:0};" vertex="1" parent="1">
          <mxGeometry x="875" y="130" width="110" height="1150" as="geometry" />
        </mxCell>
        <mxCell id="G6huOerm699WP4-tz_CP-55" value="" style="html=1;points=[];perimeter=orthogonalPerimeter;outlineConnect=0;targetShapes=umlLifeline;portConstraint=eastwest;newEdgeStyle={&quot;edgeStyle&quot;:&quot;elbowEdgeStyle&quot;,&quot;elbow&quot;:&quot;vertical&quot;,&quot;curved&quot;:0,&quot;rounded&quot;:0};" vertex="1" parent="G6huOerm699WP4-tz_CP-54">
          <mxGeometry x="50" y="730" width="10" height="330" as="geometry" />
        </mxCell>
        <mxCell id="G6huOerm699WP4-tz_CP-67" value="" style="shape=umlDestroy;whiteSpace=wrap;html=1;strokeWidth=3;targetShapes=umlLifeline;dashed=1;" vertex="1" parent="G6huOerm699WP4-tz_CP-54">
          <mxGeometry x="40" y="1130" width="30" height="30" as="geometry" />
        </mxCell>
        <mxCell id="G6huOerm699WP4-tz_CP-56" value="add reward on task" style="html=1;verticalAlign=bottom;endArrow=block;edgeStyle=elbowEdgeStyle;elbow=vertical;curved=0;rounded=0;" edge="1" parent="1">
          <mxGeometry relative="1" as="geometry">
            <mxPoint x="795" y="860" as="sourcePoint" />
            <Array as="points">
              <mxPoint x="826" y="860" />
              <mxPoint x="836" y="840" />
              <mxPoint x="758.5" y="850" />
              <mxPoint x="718.5" y="845" />
              <mxPoint x="708.5" y="820" />
              <mxPoint x="718.5" y="810" />
              <mxPoint x="688.5" y="800" />
            </Array>
            <mxPoint x="926" y="860" as="targetPoint" />
          </mxGeometry>
        </mxCell>
        <mxCell id="G6huOerm699WP4-tz_CP-57" value="Reward added" style="html=1;verticalAlign=bottom;endArrow=open;dashed=1;endSize=8;edgeStyle=elbowEdgeStyle;elbow=vertical;curved=0;rounded=0;" edge="1" parent="1">
          <mxGeometry relative="1" as="geometry">
            <mxPoint x="795" y="900" as="targetPoint" />
            <Array as="points">
              <mxPoint x="817.5" y="900" />
              <mxPoint x="852.5" y="860" />
              <mxPoint x="832.5" y="830" />
            </Array>
            <mxPoint x="925" y="900" as="sourcePoint" />
          </mxGeometry>
        </mxCell>
        <mxCell id="G6huOerm699WP4-tz_CP-58" value="" style="line;strokeWidth=1;rotatable=0;dashed=1;labelPosition=right;align=left;verticalAlign=middle;spacingTop=0;spacingLeft=6;points=[];portConstraint=eastwest;" vertex="1" parent="1">
          <mxGeometry x="405" y="1030" width="590" height="10" as="geometry" />
        </mxCell>
        <mxCell id="G6huOerm699WP4-tz_CP-59" value="&lt;b style=&quot;border-color: var(--border-color); color: rgb(0, 0, 0); font-family: Helvetica; font-size: 12px; font-style: normal; font-variant-ligatures: normal; font-variant-caps: normal; letter-spacing: normal; orphans: 2; text-align: center; text-indent: 0px; text-transform: none; widows: 2; word-spacing: 0px; -webkit-text-stroke-width: 0px; background-color: rgb(251, 251, 251); text-decoration-thickness: initial; text-decoration-style: initial; text-decoration-color: initial;&quot;&gt;[For normal user]&lt;/b&gt;" style="text;whiteSpace=wrap;html=1;" vertex="1" parent="1">
          <mxGeometry x="530" y="1030" width="130" height="40" as="geometry" />
        </mxCell>
        <mxCell id="G6huOerm699WP4-tz_CP-60" value="" style="shape=umlDestroy;whiteSpace=wrap;html=1;strokeWidth=3;targetShapes=umlLifeline;dashed=1;" vertex="1" parent="1">
          <mxGeometry x="635" y="980" width="30" height="30" as="geometry" />
        </mxCell>
        <mxCell id="G6huOerm699WP4-tz_CP-61" value="Performs an assigned task" style="html=1;verticalAlign=bottom;endArrow=block;edgeStyle=elbowEdgeStyle;elbow=vertical;curved=0;rounded=0;" edge="1" parent="1">
          <mxGeometry relative="1" as="geometry">
            <mxPoint x="515" y="1100" as="sourcePoint" />
            <Array as="points">
              <mxPoint x="685.5" y="1099" />
              <mxPoint x="695.5" y="1079" />
              <mxPoint x="618" y="1089" />
              <mxPoint x="578" y="1084" />
              <mxPoint x="568" y="1059" />
              <mxPoint x="578" y="1049" />
              <mxPoint x="548" y="1039" />
            </Array>
            <mxPoint x="785.5" y="1099" as="targetPoint" />
          </mxGeometry>
        </mxCell>
        <mxCell id="G6huOerm699WP4-tz_CP-63" value="Get reward" style="html=1;verticalAlign=bottom;endArrow=block;edgeStyle=elbowEdgeStyle;elbow=vertical;curved=0;rounded=0;" edge="1" parent="1">
          <mxGeometry relative="1" as="geometry">
            <mxPoint x="794.5" y="1141" as="sourcePoint" />
            <Array as="points">
              <mxPoint x="965" y="1140" />
              <mxPoint x="975" y="1120" />
              <mxPoint x="897.5" y="1130" />
              <mxPoint x="857.5" y="1125" />
              <mxPoint x="847.5" y="1100" />
              <mxPoint x="857.5" y="1090" />
              <mxPoint x="827.5" y="1080" />
            </Array>
            <mxPoint x="925" y="1140" as="targetPoint" />
          </mxGeometry>
        </mxCell>
        <mxCell id="G6huOerm699WP4-tz_CP-64" value="Reward earned" style="html=1;verticalAlign=bottom;endArrow=open;dashed=1;endSize=8;edgeStyle=elbowEdgeStyle;elbow=vertical;curved=0;rounded=0;" edge="1" parent="1">
          <mxGeometry relative="1" as="geometry">
            <mxPoint x="795" y="1190" as="targetPoint" />
            <Array as="points">
              <mxPoint x="817.5" y="1190" />
              <mxPoint x="852.5" y="1150" />
              <mxPoint x="832.5" y="1120" />
            </Array>
            <mxPoint x="927.5" y="1190" as="sourcePoint" />
          </mxGeometry>
        </mxCell>
        <mxCell id="G6huOerm699WP4-tz_CP-65" value="" style="shape=umlDestroy;whiteSpace=wrap;html=1;strokeWidth=3;targetShapes=umlLifeline;dashed=1;" vertex="1" parent="1">
          <mxGeometry x="775" y="1290" width="30" height="30" as="geometry" />
        </mxCell>
        <mxCell id="G6huOerm699WP4-tz_CP-68" value=":Logout" style="shape=umlLifeline;perimeter=lifelinePerimeter;whiteSpace=wrap;html=1;container=0;dropTarget=0;collapsible=0;recursiveResize=0;outlineConnect=0;portConstraint=eastwest;newEdgeStyle={&quot;edgeStyle&quot;:&quot;elbowEdgeStyle&quot;,&quot;elbow&quot;:&quot;vertical&quot;,&quot;curved&quot;:0,&quot;rounded&quot;:0};" vertex="1" parent="1">
          <mxGeometry x="1025" y="130" width="110" height="1380" as="geometry" />
        </mxCell>
        <mxCell id="G6huOerm699WP4-tz_CP-69" value="" style="html=1;points=[];perimeter=orthogonalPerimeter;outlineConnect=0;targetShapes=umlLifeline;portConstraint=eastwest;newEdgeStyle={&quot;edgeStyle&quot;:&quot;elbowEdgeStyle&quot;,&quot;elbow&quot;:&quot;vertical&quot;,&quot;curved&quot;:0,&quot;rounded&quot;:0};" vertex="1" parent="G6huOerm699WP4-tz_CP-68">
          <mxGeometry x="50" y="590" width="10" height="730" as="geometry" />
        </mxCell>
        <mxCell id="G6huOerm699WP4-tz_CP-72" value="Logout user" style="html=1;verticalAlign=bottom;endArrow=block;edgeStyle=elbowEdgeStyle;elbow=vertical;curved=0;rounded=0;" edge="1" parent="1">
          <mxGeometry relative="1" as="geometry">
            <mxPoint x="509.5" y="1361" as="sourcePoint" />
            <Array as="points">
              <mxPoint x="680" y="1360" />
              <mxPoint x="690" y="1340" />
              <mxPoint x="612.5" y="1350" />
              <mxPoint x="572.5" y="1345" />
              <mxPoint x="562.5" y="1320" />
              <mxPoint x="572.5" y="1310" />
              <mxPoint x="542.5" y="1300" />
            </Array>
            <mxPoint x="1075" y="1360" as="targetPoint" />
          </mxGeometry>
        </mxCell>
        <mxCell id="G6huOerm699WP4-tz_CP-73" value="User logged out" style="html=1;verticalAlign=bottom;endArrow=open;dashed=1;endSize=8;edgeStyle=elbowEdgeStyle;elbow=vertical;curved=0;rounded=0;" edge="1" parent="1">
          <mxGeometry relative="1" as="geometry">
            <mxPoint x="515" y="1450" as="targetPoint" />
            <Array as="points">
              <mxPoint x="967.5" y="1450" />
              <mxPoint x="1002.5" y="1410" />
              <mxPoint x="982.5" y="1380" />
            </Array>
            <mxPoint x="1077.5" y="1450" as="sourcePoint" />
          </mxGeometry>
        </mxCell>
        <mxCell id="G6huOerm699WP4-tz_CP-74" value="" style="shape=umlDestroy;whiteSpace=wrap;html=1;strokeWidth=3;targetShapes=umlLifeline;dashed=1;" vertex="1" parent="1">
          <mxGeometry x="1065" y="1500" width="30" height="30" as="geometry" />
        </mxCell>
        <mxCell id="G6huOerm699WP4-tz_CP-75" value="User logged out" style="html=1;verticalAlign=bottom;endArrow=open;dashed=1;endSize=8;edgeStyle=elbowEdgeStyle;elbow=vertical;curved=0;rounded=0;" edge="1" parent="1" source="G6huOerm699WP4-tz_CP-38">
          <mxGeometry relative="1" as="geometry">
            <mxPoint x="70" y="1570" as="targetPoint" />
            <Array as="points">
              <mxPoint x="522.5" y="1570" />
              <mxPoint x="557.5" y="1530" />
              <mxPoint x="537.5" y="1500" />
            </Array>
            <mxPoint x="335" y="1640" as="sourcePoint" />
          </mxGeometry>
        </mxCell>
        <mxCell id="G6huOerm699WP4-tz_CP-76" value="" style="shape=umlDestroy;whiteSpace=wrap;html=1;strokeWidth=3;targetShapes=umlLifeline;dashed=1;" vertex="1" parent="1">
          <mxGeometry x="490" y="1610" width="30" height="30" as="geometry" />
        </mxCell>
        <mxCell id="G6huOerm699WP4-tz_CP-77" value="" style="shape=umlDestroy;whiteSpace=wrap;html=1;strokeWidth=3;targetShapes=umlLifeline;dashed=1;" vertex="1" parent="1">
          <mxGeometry x="50" y="1680" width="30" height="30" as="geometry" />
        </mxCell>
        <mxCell id="G6huOerm699WP4-tz_CP-80" value="Task fillfiled" style="html=1;verticalAlign=bottom;endArrow=open;dashed=1;endSize=8;edgeStyle=elbowEdgeStyle;elbow=vertical;curved=0;rounded=0;" edge="1" parent="1" target="G6huOerm699WP4-tz_CP-39">
          <mxGeometry relative="1" as="geometry">
            <mxPoint x="660" y="1240" as="targetPoint" />
            <Array as="points">
              <mxPoint x="682.5" y="1240" />
              <mxPoint x="717.5" y="1200" />
              <mxPoint x="697.5" y="1170" />
            </Array>
            <mxPoint x="792.5" y="1240" as="sourcePoint" />
          </mxGeometry>
        </mxCell>
      </root>
    </mxGraphModel>
  </diagram>
</mxfile>
